<svg width="40" height="40" fill="none" xmlns="http://www.w3.org/2000/svg"><path stroke="#898989" d="M.5.5h39v39H.5z"/><path d="M29.969 14.885c.17.46-.353 1.532-1.567 3.217-.17.23-.389.536-.656.919-.559.715-.875 1.187-.947 1.417-.122.306-.073.6.145.88.122.154.401.46.838.92h.037v.038c.996.945 1.664 1.749 2.004 2.412l.073.154.073.287v.364l-.255.287-.62.134-2.66.076c-.17.026-.37 0-.601-.076a2.501 2.501 0 01-.528-.23l-.22-.153a4.28 4.28 0 01-.728-.69 30 30 0 01-.71-.842 3.735 3.735 0 00-.638-.632c-.219-.166-.413-.223-.583-.172-.024 0-.055.013-.091.038a1.53 1.53 0 00-.183.172c-.085.09-.157.198-.218.326-.06.128-.116.313-.164.555-.049.243-.073.53-.073.862a1.309 1.309 0 01-.11.498l-.036.038c-.145.153-.34.23-.583.23h-1.166c-.51.05-1.026 0-1.549-.153a5.49 5.49 0 01-1.366-.594c-.389-.242-.74-.485-1.057-.728a6.473 6.473 0 01-.729-.631l-.255-.268a1.64 1.64 0 01-.291-.307 46.1 46.1 0 01-.747-.995 24.693 24.693 0 01-1.111-1.647c-.365-.587-.79-1.36-1.276-2.317a38.236 38.236 0 01-1.348-2.968A.92.92 0 0110 15c0-.077.012-.14.036-.192l.037-.038c.097-.153.291-.23.583-.23h2.879c.072 0 .145.02.218.058l.182.096.037.038a.607.607 0 01.255.345c.146.357.31.733.492 1.13.182.395.322.695.419.9l.146.306c.218.433.419.81.6 1.13.183.318.347.567.493.746.146.179.291.319.437.421.146.102.267.153.364.153.098 0 .195-.012.292-.038l.037-.057.127-.25.146-.497.09-.88v-1.38a7.133 7.133 0 00-.108-.785 2.439 2.439 0 00-.146-.517l-.037-.114c-.17-.256-.473-.422-.91-.498-.073 0-.05-.09.072-.268a1.54 1.54 0 01.401-.307c.364-.204 1.19-.293 2.478-.268.559 0 1.032.051 1.421.153.122.026.23.07.328.134.097.064.17.154.219.268.048.115.085.23.109.345.024.115.036.281.036.498v.594c-.024.204-.036.46-.036.766v.918c0 .077-.006.23-.018.46-.012.23-.018.409-.018.536 0 .128.012.275.036.44.024.166.067.307.128.422a.571.571 0 00.4.306c.061.013.152-.025.274-.115.121-.09.255-.217.4-.383.146-.166.328-.415.547-.746.219-.332.45-.715.692-1.15.413-.765.79-1.595 1.13-2.488.024-.051.055-.109.091-.173a.33.33 0 01.128-.134h.036l.037-.038.145-.038h.219l2.988-.039c.267-.025.492-.012.674.039.182.05.286.115.31.191l.073.115z" fill="#fff"/></svg>