<svg width="40" height="40" fill="none" xmlns="http://www.w3.org/2000/svg"><path stroke="#898989" d="M.5.5h39v39H.5z"/><g clip-path="url(#clip0_10_112)"><path d="M29.583 15.422a2.322 2.322 0 00-.638-1.058 2.542 2.542 0 00-1.115-.618c-1.565-.413-7.835-.413-7.835-.413a63.862 63.862 0 00-7.825.392 2.634 2.634 0 00-1.115.633 2.414 2.414 0 00-.648 1.064A24.24 24.24 0 0010 20c-.01 1.534.126 3.067.407 4.578.114.4.336.764.646 1.058.309.294.694.506 1.117.619 1.586.412 7.825.412 7.825.412 2.617.03 5.234-.102 7.835-.392.418-.108.802-.32 1.115-.618.308-.295.527-.66.637-1.059.288-1.509.428-3.043.418-4.579a22.147 22.147 0 00-.417-4.597zm-11.581 7.431v-5.706l5.216 2.854-5.216 2.852z" fill="#fff"/></g><defs><clipPath id="clip0_10_112"><path fill="#fff" transform="translate(10 10)" d="M0 0h20v20H0z"/></clipPath></defs></svg>