<svg width="78" height="79" viewBox="0 0 78 79" fill="none" xmlns="http://www.w3.org/2000/svg">
<g filter="url(#filter0_d_2_187)">
<path fill-rule="evenodd" clip-rule="evenodd" d="M49.3829 0.357938C45.1862 0.960253 41.2548 3.68521 39.1009 7.48488C38.7801 8.05075 37.8845 10.2175 37.1106 12.2999L35.7037 16.0859H35.1018H34.4998V15.2995C34.4998 14.6535 34.4379 14.4507 34.1535 14.1649C33.8248 13.8344 33.7229 13.8169 32.1432 13.8183C30.3039 13.82 27.1997 14.1241 25.702 14.4493C23.9846 14.8223 22.9214 15.6955 22.3648 17.1904C21.6165 19.1993 22.5228 21.4713 24.4521 22.4238C25.2436 22.8146 25.3197 22.8238 28.3056 22.8933L31.3516 22.9642L29.6677 25.0207C27.7705 27.3374 26.8466 28.6493 26.1881 29.961C25.8264 30.6816 25.6898 30.8382 25.4984 30.7522C25.3671 30.6934 24.72 30.4514 24.0605 30.2146C22.9642 29.821 22.7041 29.7834 21.0274 29.7779C18.9407 29.7708 17.8582 30.0281 16.0899 30.9516C14.7194 31.6672 12.73 33.6649 12.0393 35.019C10.6664 37.7104 10.456 40.4003 11.3937 43.2719L11.6901 44.1797L9.8521 46.0523C8.84103 47.0822 7.9053 48.1394 7.77269 48.4017C7.40111 49.1361 7.33805 50.2457 7.61963 51.0977L7.86072 51.8276L7.30095 52.7188C5.96401 54.8468 4.97735 57.2636 4.43507 59.7386C4.17098 60.9438 4.12541 61.6979 4.06673 65.8297L4 70.5453H5.12829H6.25673L6.32684 65.9006C6.40133 60.9562 6.45296 60.5094 7.22364 58.1359C7.63613 56.8653 8.62336 54.7938 9.25889 53.8652C9.63879 53.3102 9.71159 53.2656 10.0365 53.3897C10.5699 53.5937 11.3682 53.5561 12.15 53.2904C12.7177 53.0976 13.2011 52.7027 14.786 51.1373L16.7268 49.2203L17.6074 49.5241C18.7168 49.9069 19.9307 50.123 20.9704 50.123C21.7411 50.123 23.5715 49.8301 24.0957 49.6229C24.3233 49.533 24.3427 49.6734 24.345 51.4197C24.3478 53.5253 24.5656 54.8345 25.1137 56.0378L25.4712 56.8229V62.214C25.4712 66.0321 25.5213 67.7754 25.6427 68.1888C25.8717 68.9678 27.0403 70.1426 27.8152 70.3728C28.2232 70.4939 29.8829 70.5453 33.3977 70.5453C39.2058 70.5453 39.3311 70.5248 40.3259 69.4124C41.1604 68.4795 41.2713 67.9989 41.2713 65.3169C41.2713 63.1296 41.2835 63.0287 41.5511 63.0287C41.7051 63.0287 42.8635 63.1228 44.1257 63.2376C48.492 63.635 52.3918 63.7374 63.1727 63.7376L74 63.7378V62.616V61.4942L61.3388 61.4291C46.7674 61.3541 44.9669 61.2565 37.0391 60.1128C31.4862 59.3115 30.2751 58.9108 28.706 57.3559C27.7063 56.3654 27.1725 55.4256 26.8156 54.0288C26.5649 53.0472 26.5007 48.2793 26.7381 48.2793C27.0186 48.2793 28.8465 46.4006 29.4058 45.5375C30.3932 44.0141 31.1141 41.7778 31.1141 40.2386C31.1141 39.7923 31.1478 39.7477 31.4315 39.8173C32.0299 39.9644 37.5323 40.6128 39.3991 40.7561C40.4255 40.8351 42.5948 40.9425 44.2198 40.9951L47.1741 41.0906L47.6242 40.6381C48.0543 40.2057 48.0698 40.1514 47.9767 39.403C47.6335 36.6415 46.2876 33.9179 44.1734 31.7062C42.9121 30.3867 41.7939 29.5808 40.1156 28.7816C38.0358 27.7911 36.8879 27.559 33.5415 27.4522L30.6789 27.3607L33.4477 23.9581L36.2165 20.5557L37.767 20.3065C41.8584 19.6489 48.099 18.9768 53.3329 18.63C54.652 18.5425 59.8416 18.4377 64.8656 18.3969L74 18.3226V17.187V16.0516L64.7245 16.1263C55.5047 16.2005 52.3766 16.3311 46.9141 16.8698C44.2776 17.1299 40.5361 17.5892 38.8117 17.8648C38.1183 17.9755 37.5202 18.0351 37.4825 17.9971C37.3961 17.9103 40.0125 10.8448 40.6501 9.44301C41.9045 6.68515 44.3028 4.42792 47.1963 3.28172C49.2133 2.48285 49.4306 2.47107 62.236 2.47107H74V1.3365V0.201935L62.1147 0.219237C55.5778 0.228739 49.8484 0.29114 49.3829 0.357938ZM32.2426 16.8723C32.2426 17.5183 32.3046 17.7211 32.589 18.0069C32.8861 18.3057 33.0662 18.3551 33.8586 18.3551C34.5449 18.3551 34.7819 18.4048 34.7819 18.5488C34.7819 18.6553 34.4486 19.162 34.0413 19.6748L33.3007 20.6073L29.5623 20.6153C26.0724 20.6226 25.7932 20.6043 25.3641 20.3413C24.0959 19.5639 24.0276 17.8062 25.2347 17.0112C25.8429 16.6104 28.8899 16.1493 31.2199 16.1052L32.2426 16.0859V16.8723ZM37.2951 30.1081C39.3271 30.7143 41.3919 31.9804 42.7263 33.4384C43.9291 34.7527 45.1276 36.9173 45.4271 38.3164L45.5259 38.7773L44.915 38.7752C42.658 38.7677 36.426 38.2604 33.7944 37.8699L32.5953 37.6921L33.2301 37.495C34.0623 37.2364 35.2215 36.0867 35.4568 35.2862C35.8476 33.9565 35.5721 32.8964 34.5751 31.8942C33.1441 30.4557 31.342 30.4592 29.8966 31.9034C29.4518 32.3477 29.1336 32.8065 29.0708 33.0938L28.9688 33.5613L28.2839 32.8831L27.599 32.2049L28.2492 30.9393L28.8994 29.6737L32.5814 29.7369C35.8342 29.7928 36.3834 29.836 37.2951 30.1081ZM53.7561 29.8326C52.4865 30.1414 51.3122 31.108 50.729 32.3244C50.3182 33.1812 50.1694 35.4057 50.4363 36.6981C50.9789 39.3256 53.2016 41.5435 55.7863 42.0362C56.2514 42.125 59.9266 42.181 65.2727 42.181H74V41.0465V39.9119H72.8714H71.7428V38.21V36.5082H72.8714H74V35.3736V34.239H72.8714H71.7428V33.1045V31.9699H72.8714H74V30.8353V29.7008L64.0897 29.7152C58.6391 29.7233 53.9889 29.7761 53.7561 29.8326ZM23.3653 32.3853C25.0284 32.9046 26.8416 34.3272 27.6946 35.782C29.0866 38.1563 29.1994 40.9148 28.0064 43.4056C26.8145 45.8943 24.3734 47.5692 21.5942 47.8054C20.608 47.8892 18.7718 47.6604 18.6343 47.4366C18.6001 47.3812 18.9659 46.9493 19.4471 46.4771L20.322 45.6185L21.3581 45.5378C23.4098 45.3781 25.0738 44.2345 26.0023 42.3455C26.4996 41.3341 26.5292 41.1978 26.5292 39.9193C26.5292 38.6925 26.487 38.4751 26.0827 37.6172C25.4614 36.2987 24.6617 35.4776 23.3777 34.8396C22.3704 34.3392 22.2371 34.3099 20.9569 34.3099C19.6766 34.3099 19.5433 34.3392 18.5361 34.8396C16.6571 35.7731 15.5195 37.4459 15.3607 39.5085L15.2804 40.5501L14.4264 41.4296C13.9566 41.9134 13.5255 42.2802 13.4682 42.2446C13.4111 42.2091 13.2875 41.7222 13.1937 41.1627C12.5162 37.1254 15.2368 33.1008 19.264 32.1826C20.4301 31.9169 22.1345 32.0011 23.3653 32.3853ZM55.9428 33.1045V34.239H54.2499C52.4107 34.239 52.4048 34.2359 52.7076 33.4328C53.069 32.4738 53.8837 31.9839 55.1316 31.9754L55.9428 31.9699V33.1045ZM60.4571 33.1045V34.239H59.3285H58.1999V33.1045V31.9699H59.3285H60.4571V33.1045ZM64.9714 33.1045V34.239H63.8428H62.7142V33.1045V31.9699H63.8428H64.9714V33.1045ZM69.4857 33.1045V34.239H68.3571H67.2285V33.1045V31.9699H68.3571H69.4857V33.1045ZM33.0249 33.4526C33.7247 34.1561 33.2289 35.3736 32.2426 35.3736C31.9678 35.3736 31.6786 35.245 31.4604 35.0254C31.242 34.806 31.1141 34.5153 31.1141 34.239C31.1141 33.9628 31.242 33.672 31.4604 33.4526C31.6786 33.2331 31.9678 33.1045 32.2426 33.1045C32.5175 33.1045 32.8066 33.2331 33.0249 33.4526ZM38.0901 33.304C36.6668 33.9272 36.3306 35.8293 37.4457 36.9504C39.0306 38.5437 41.6279 37.1166 41.2109 34.8813C40.9613 33.5445 39.3736 32.742 38.0901 33.304ZM22.1029 36.7267C22.4425 36.847 22.9879 37.2092 23.3149 37.5316C24.6209 38.8187 24.6829 40.7682 23.4595 42.0853C23.1305 42.4396 22.9492 42.5635 23.0083 42.3938C23.2429 41.7201 23.2396 40.7715 23 40.0466C22.3979 38.2241 20.3725 37.241 18.4881 37.8566C18.3132 37.9138 18.4311 37.7375 18.7983 37.3929C19.7212 36.5268 20.8793 36.2935 22.1029 36.7267ZM55.9428 38.1356V39.763L55.5891 39.6278C54.8823 39.3576 54.4508 39.0774 53.9189 38.5427C53.3871 38.0081 53.1083 37.5742 52.8396 36.8637L52.7052 36.5082H54.324H55.9428V38.1356ZM60.4571 38.21V39.9119H59.3285H58.1999V38.21V36.5082H59.3285H60.4571V38.21ZM64.9714 38.21V39.9119H63.8428H62.7142V38.21V36.5082H63.8428H64.9714V38.21ZM69.4857 38.21V39.9119H68.3571H67.2285V38.21V36.5082H68.3571H69.4857V38.21ZM20.5445 40.3264C20.8341 40.6177 20.9569 40.8807 20.9569 41.2105C20.9569 41.6381 20.5321 42.107 16.1934 46.4688C11.8546 50.8306 11.3882 51.2576 10.9629 51.2576C10.3213 51.2576 9.6711 50.6039 9.6711 49.9589C9.6711 49.5313 10.0959 49.0625 14.4345 44.7006C18.7734 40.3389 19.2397 39.9119 19.6651 39.9119C19.9932 39.9119 20.2548 40.0353 20.5445 40.3264ZM39.4802 43.5282C39.3102 43.6479 39.046 44.1406 38.8756 44.6551C38.4127 46.0533 37.7416 46.7193 36.7953 46.7193C36.576 46.7193 36.271 46.8077 36.1176 46.9157C35.8805 47.0826 35.4364 47.0835 33.1589 46.9211C29.5341 46.6626 29.6085 46.6599 29.2032 47.0675L28.8569 47.4155V50.7294C28.8569 54.5809 28.951 55.0469 29.9262 56.0273C30.3521 56.4556 30.748 56.6944 31.2797 56.8443C31.785 56.9867 34.8859 57.2253 40.749 57.5725C48.79 58.0485 49.4937 58.0711 49.8106 57.8623C49.9997 57.7378 50.1949 57.473 50.2447 57.2741C50.379 56.736 48.0004 48.4285 47.6223 48.1154C47.4275 47.9539 46.9177 47.8488 45.9927 47.779C44.7102 47.6823 44.637 47.659 44.4454 47.2864C44.2262 46.8604 43.9758 46.7193 43.4394 46.7193C42.5497 46.7193 41.8477 46.0173 41.4185 44.6982C41.0887 43.6845 40.7484 43.3156 40.1427 43.3156C39.9445 43.3156 39.6464 43.4113 39.4802 43.5282ZM40.4308 47.6482C40.5806 47.8299 40.5714 47.9092 40.3774 48.104C40.1585 48.3243 40.1269 48.3243 39.9079 48.104C39.714 47.9092 39.7048 47.8299 39.8546 47.6482C39.9545 47.5274 40.0841 47.4284 40.1427 47.4284C40.2012 47.4284 40.3309 47.5274 40.4308 47.6482ZM51.7549 48.2219C51.4016 48.577 51.3921 48.6313 51.4795 49.7757C51.6691 52.2556 52.63 54.31 54.4611 56.1508C55.7441 57.4407 56.9208 58.1851 58.5526 58.7391L59.6812 59.1221L66.8406 59.1692L74 59.2162V58.0732V56.9304H67.3922C61.2493 56.9304 60.7069 56.9104 59.6827 56.6472C58.2635 56.2823 57.0313 55.583 56.0252 54.5714C55.1021 53.6436 54.6196 52.8733 54.1552 51.5872C53.5612 49.9422 52.3557 50.123 63.9133 50.123H74V48.9884V47.8539H63.0606H52.121L51.7549 48.2219ZM35.2052 49.34C38.5235 49.576 38.3619 49.5008 38.8739 51.0474C39.1964 52.0216 39.5459 52.3922 40.1427 52.3922C40.7322 52.3922 41.0893 52.0204 41.403 51.0804C41.8581 49.7166 41.6812 49.8008 43.8478 49.9162C44.8982 49.9723 45.8333 50.065 45.9257 50.1224C46.0999 50.2307 47.6634 55.5153 47.5538 55.6255C47.4996 55.6801 40.7249 55.3088 34.9935 54.9373C33.9073 54.8668 32.7756 54.8078 32.4787 54.8061C32.0725 54.8038 31.8366 54.7004 31.5264 54.3886L31.1141 53.974V51.5521V49.1303L31.7136 49.1324C32.0434 49.1335 33.6146 49.227 35.2052 49.34ZM29.7378 60.8312C30.8788 61.3707 32.3328 61.6951 36.1221 62.2554C37.5187 62.462 38.7408 62.6546 38.8378 62.6836C38.9699 62.723 39.0141 63.3432 39.0141 65.1581C39.0141 67.5404 39.0085 67.5856 38.6678 67.928L38.3216 68.2761H33.3712H28.4209L28.0747 67.928L27.7283 67.5799V63.5857V59.5914L28.2212 59.9694C28.4924 60.1773 29.1749 60.5652 29.7378 60.8312Z" fill="white"/>
<path fill-rule="evenodd" clip-rule="evenodd" d="M11.146 17.5687C10.9555 17.7602 10.7996 18.0339 10.7996 18.177C10.7996 18.613 10.3813 20.0923 10.0806 20.7204C9.39102 22.16 8.01105 23.3796 6.4989 23.8854C5.52536 24.2112 5.15674 24.5619 5.15674 25.1625C5.15674 25.7471 5.5248 26.119 6.33906 26.357C8.60906 27.0204 10.3396 29.1656 10.7479 31.8219C11.0117 33.5386 12.8447 33.5386 13.1086 31.8219C13.5168 29.1656 15.2473 27.0204 17.5173 26.357C18.3316 26.119 18.6997 25.7471 18.6997 25.1625C18.6997 24.5619 18.331 24.2112 17.3575 23.8854C15.8454 23.3796 14.4654 22.16 13.7758 20.7204C13.4751 20.0923 13.0568 18.613 13.0568 18.177C13.0568 17.7598 12.4205 17.2206 11.9282 17.2206C11.6534 17.2206 11.3642 17.3492 11.146 17.5687ZM12.3987 22.8211C12.6187 23.1711 13.2151 23.8412 13.7241 24.3099L14.6494 25.1624L13.7241 26.0149C13.2151 26.4836 12.6187 27.1537 12.3987 27.5037C12.1788 27.8537 11.9671 28.1401 11.9283 28.1401C11.8895 28.1401 11.6777 27.8537 11.4578 27.5037C11.2379 27.1537 10.6414 26.4836 10.1324 26.0149L9.20713 25.1624L10.1324 24.3099C10.6414 23.8412 11.2379 23.1711 11.4578 22.8211C11.6777 22.4711 11.8895 22.1847 11.9283 22.1847C11.9671 22.1847 12.1788 22.4711 12.3987 22.8211Z" fill="#DB3138"/>
</g>
<defs>
<filter id="filter0_d_2_187" x="0" y="0.201935" width="78" height="78.3433" filterUnits="userSpaceOnUse" color-interpolation-filters="sRGB">
<feFlood flood-opacity="0" result="BackgroundImageFix"/>
<feColorMatrix in="SourceAlpha" type="matrix" values="0 0 0 0 0 0 0 0 0 0 0 0 0 0 0 0 0 0 127 0" result="hardAlpha"/>
<feOffset dy="4"/>
<feGaussianBlur stdDeviation="2"/>
<feComposite in2="hardAlpha" operator="out"/>
<feColorMatrix type="matrix" values="0 0 0 0 0 0 0 0 0 0 0 0 0 0 0 0 0 0 0.25 0"/>
<feBlend mode="normal" in2="BackgroundImageFix" result="effect1_dropShadow_2_187"/>
<feBlend mode="normal" in="SourceGraphic" in2="effect1_dropShadow_2_187" result="shape"/>
</filter>
</defs>
</svg>
