<svg width="78" height="54" viewBox="0 0 78 54" fill="none" xmlns="http://www.w3.org/2000/svg">
<g filter="url(#filter0_d_2_147)">
<path fill-rule="evenodd" clip-rule="evenodd" d="M19.0028 0.609108C18.8122 0.80064 18.6562 1.04949 18.6562 1.16228C18.6562 1.3304 18.2321 1.37765 16.2914 1.42574C13.6356 1.49157 13.0332 1.6465 11.7498 2.59324C10.3414 3.63219 10.2098 3.93935 6.93122 13.8338C4.10996 22.348 3.94237 22.913 4.01113 23.6747C4.1509 25.2241 5.02398 26.5075 6.3607 27.1288C6.96002 27.4074 7.28714 27.4332 10.7262 27.4741C14.6714 27.5209 14.9883 27.4752 15.1804 26.8308C15.2218 26.6921 15.6724 23.4294 16.1821 19.5803C16.6916 15.7312 17.1933 12.3784 17.2966 12.1296C17.4001 11.8808 17.7324 11.4586 18.0351 11.1912L18.5856 10.705L18.682 13.3216C18.8458 17.7631 19.3144 23.4467 19.7259 25.9858C19.8133 26.5245 19.8173 26.5274 20.3645 26.4469C22.2058 26.1759 22.0677 26.2294 21.9843 25.82C21.6733 24.2935 21.1438 18.0573 20.9737 13.9163L20.879 11.6109H22.6395H24.4L24.5606 12.1493C24.7926 12.9277 25.6052 13.8058 26.501 14.2462C27.3738 14.6754 27.6919 15.0389 27.6919 15.6071C27.6919 16.1337 27.1941 16.6297 26.3611 16.9332C25.5447 17.2305 24.6194 18.1088 24.2699 18.9174C23.9847 19.5775 19.9624 37.6772 19.8334 38.8806C19.5145 41.8579 21.7348 44.8805 24.6987 45.5037C25.7522 45.7251 47.7176 45.723 48.7566 45.5014C51.7432 44.8641 53.9424 41.8714 53.6219 38.8806C53.4458 37.2386 49.436 19.5085 49.0675 18.7429C48.6531 17.8823 47.9387 17.2381 47.0357 16.9108C45.9106 16.5029 45.4578 15.6593 45.9696 14.9249C46.0831 14.7621 46.5262 14.4567 46.9542 14.2462C48.2351 13.6165 49.1518 12.2442 49.1518 10.9567C49.1518 10.6115 49.227 10.471 49.4497 10.3999C49.6136 10.3477 50.9516 9.57721 52.423 8.68793L55.0984 7.07083H64.2027H73.3069L73.6534 6.72253C73.9972 6.3772 74 6.35238 74 3.66582C74 0.979261 73.9972 0.954433 73.6534 0.609108L73.3069 0.260803H61.0111H48.7154L48.3689 0.609108C48.1783 0.80064 48.0223 1.05602 48.0223 1.17661C48.0223 1.37254 46.8208 1.39581 36.7276 1.39581C26.6345 1.39581 25.433 1.37254 25.433 1.17661C25.433 1.05602 25.277 0.80064 25.0864 0.609108C24.7427 0.263641 24.718 0.260803 22.0446 0.260803C19.3712 0.260803 19.3464 0.263641 19.0028 0.609108ZM23.1741 5.93583V9.34084H22.0446H20.9151V5.93583V2.53081H22.0446H23.1741V5.93583ZM64.9643 3.66582V4.80082H59.7257H54.4871L52.3841 6.07274L50.2812 7.34465V4.93773V2.53081H57.6228H64.9643V3.66582ZM71.7411 3.66582V4.80082H69.4821H67.2232V3.66582V2.53081H69.4821H71.7411V3.66582ZM18.6562 5.98066V8.2955L17.8444 8.63288C16.8732 9.03652 15.7436 10.1169 15.3049 11.0617C15.0415 11.6292 14.9271 11.7322 14.4633 11.8194C13.0142 12.092 11.1601 13.4901 10.4091 14.8767C10.1402 15.3734 9.63177 17.1271 8.83974 20.2907C8.19538 22.8644 7.63121 25.0073 7.58603 25.0526C7.54085 25.098 7.34475 25.0622 7.15006 24.9731C6.71874 24.7756 6.23335 24.0112 6.23265 23.5284C6.23194 23.0578 11.9449 5.84971 12.2915 5.27838C12.6275 4.72464 13.4069 4.11783 14.1028 3.86827C14.4471 3.7447 15.3364 3.67603 16.6443 3.67206L18.6562 3.66582V5.98066ZM26.5625 4.80082V5.93583H27.6919H28.8214V4.80082V3.66582H29.9509H31.0803V4.80082V5.93583H32.2098H33.3392V4.80082V3.66582H34.4687H35.5982V4.80082V5.93583H36.7276H37.8571V4.80082V3.66582H38.9866H40.116V4.80082V5.93583H41.2455H42.375V4.80082V3.66582H43.5044H44.6339V4.80082V5.93583H45.7634H46.8928V4.80082V3.66582H47.4576H48.0223V5.93583V8.20584H36.7276H25.433V5.93583V3.66582H25.9977H26.5625V4.80082ZM46.8928 10.8823C46.8928 11.4555 46.449 11.955 45.4775 12.4754C43.8365 13.3544 43.1292 15.0465 43.7107 16.7028C44.0569 17.6885 44.5887 18.2465 45.69 18.7787C46.8513 19.3401 47.1354 19.604 47.2617 20.2392L47.3517 20.6909H36.7276H26.1036L26.1935 20.2392C26.3199 19.604 26.604 19.3401 27.7653 18.7787C28.8666 18.2465 29.3984 17.6885 29.7446 16.7028C30.3261 15.0465 29.6188 13.3544 27.9778 12.4754C27.0063 11.955 26.5625 11.4555 26.5625 10.8823V10.4758H36.7276H46.8928V10.8823ZM14.5606 14.4129C14.5601 14.5495 14.243 17.0234 13.856 19.9106C13.469 22.7977 13.1519 25.176 13.1513 25.1954C13.1506 25.2149 12.4261 25.2309 11.5413 25.2309H9.93249L11.0278 20.8599C11.6302 18.4556 12.2057 16.3329 12.3065 16.1425C12.6702 15.4564 13.0854 14.9916 13.7011 14.5819C14.4272 14.0985 14.5623 14.072 14.5606 14.4129ZM47.9294 23.2801C47.9727 23.4558 48.7792 27.0788 49.7216 31.3316C51.579 39.7141 51.6027 39.8982 50.9836 41.1383C50.5629 41.9816 50.062 42.4948 49.2224 42.9431L48.5164 43.3201H36.7276H24.9389L24.3577 43.0076C23.4477 42.5185 22.9078 41.9948 22.5195 41.2248C21.8461 39.8892 21.8567 39.8027 23.7337 31.3316C24.6761 27.0788 25.4825 23.4558 25.5259 23.2801L25.6048 22.9609H36.7276H47.8505L47.9294 23.2801Z" fill="white"/>
<path fill-rule="evenodd" clip-rule="evenodd" d="M40.0406 26.2881C40.4315 25.8946 40.9737 25.502 41.2454 25.4159C42.5594 24.9997 43.7157 25.2914 44.7092 26.2897C45.4404 27.0245 45.7633 27.7431 45.7633 28.6355C45.7633 30.8781 43.2716 32.6579 41.2943 31.8277C41.0155 31.7106 40.7663 31.6148 40.7403 31.6148C40.7145 31.6148 40.7903 31.8862 40.9089 32.2178C41.2157 33.0759 41.3101 34.664 41.1115 35.6247C40.845 36.9126 40.0925 38.2689 39.1349 39.1867C36.4418 41.768 32.3652 41.7309 29.7517 39.1012C26.846 36.1776 27.1153 31.5408 30.3388 28.9907C32.6871 27.133 36.1671 27.0755 38.4903 28.8564L38.9865 29.2366V28.7043C38.9865 27.7435 39.2929 27.0411 40.0406 26.2881ZM38.5638 32.3952C38.1174 31.4826 37.2671 30.6329 36.3747 30.2074C35.453 29.7679 33.9486 29.6731 33.0576 29.9985C29.1983 31.4077 28.8927 36.6123 32.5627 38.4257C33.1478 38.7149 33.474 38.7739 34.4687 38.7703C35.4856 38.7666 35.7787 38.7086 36.3898 38.3904C37.4532 37.8367 37.8966 37.4063 38.4299 36.4104C38.8663 35.5956 38.9086 35.4097 38.9097 34.3105C38.9107 33.3149 38.8504 32.9808 38.5638 32.3952ZM43.1578 27.8491C43.3763 28.0686 43.5044 28.3594 43.5044 28.6358C43.5044 28.9122 43.3763 29.203 43.1578 29.4225C42.9394 29.6421 42.65 29.7708 42.3749 29.7708C42.0999 29.7708 41.8105 29.6421 41.5921 29.4225C41.3735 29.203 41.2455 28.9122 41.2455 28.6358C41.2455 28.3594 41.3735 28.0686 41.5921 27.8491C41.8105 27.6295 42.0999 27.5008 42.3749 27.5008C42.65 27.5008 42.9394 27.6295 43.1578 27.8491Z" fill="#DB3138"/>
</g>
<defs>
<filter id="filter0_d_2_147" x="0" y="0.260803" width="78" height="53.4079" filterUnits="userSpaceOnUse" color-interpolation-filters="sRGB">
<feFlood flood-opacity="0" result="BackgroundImageFix"/>
<feColorMatrix in="SourceAlpha" type="matrix" values="0 0 0 0 0 0 0 0 0 0 0 0 0 0 0 0 0 0 127 0" result="hardAlpha"/>
<feOffset dy="4"/>
<feGaussianBlur stdDeviation="2"/>
<feComposite in2="hardAlpha" operator="out"/>
<feColorMatrix type="matrix" values="0 0 0 0 0 0 0 0 0 0 0 0 0 0 0 0 0 0 0.25 0"/>
<feBlend mode="normal" in2="BackgroundImageFix" result="effect1_dropShadow_2_147"/>
<feBlend mode="normal" in="SourceGraphic" in2="effect1_dropShadow_2_147" result="shape"/>
</filter>
</defs>
</svg>
