<svg width="78" height="54" viewBox="0 0 78 54" fill="none" xmlns="http://www.w3.org/2000/svg">
<g filter="url(#filter0_d_2_227)">
<path fill-rule="evenodd" clip-rule="evenodd" d="M19.0028 0.488756C18.8122 0.679353 18.6562 0.926987 18.6562 1.03923C18.6562 1.20653 18.2321 1.25354 16.2914 1.30141C13.6356 1.36691 13.0332 1.52109 11.7498 2.4632C10.3414 3.49709 10.2098 3.80275 6.93122 13.6489C4.10996 22.1215 3.94237 22.6837 4.01113 23.4417C4.1509 24.9836 5.02398 26.2608 6.3607 26.879C6.96002 27.1563 7.28714 27.182 10.7262 27.2226C14.6714 27.2692 14.9883 27.2238 15.1804 26.5825C15.2218 26.4444 15.6724 23.1976 16.1821 19.3673C16.6916 15.537 17.1933 12.2006 17.2966 11.953C17.4001 11.7055 17.7324 11.2853 18.0351 11.0192L18.5856 10.5353L18.682 13.1392C18.8458 17.5591 19.3144 23.2149 19.7259 25.7416C19.8133 26.2777 19.8173 26.2805 20.3645 26.2005C22.2058 25.9308 22.0677 25.984 21.9843 25.5766C21.6733 24.0576 21.1438 17.8517 20.9737 13.731L20.879 11.4368H22.6395H24.4L24.5606 11.9726C24.7926 12.7473 25.6052 13.621 26.501 14.0593C27.3738 14.4864 27.6919 14.8481 27.6919 15.4135C27.6919 15.9376 27.1941 16.4312 26.3611 16.7331C25.5447 17.0291 24.6194 17.903 24.2699 18.7077C23.9847 19.3645 19.9624 37.376 19.8334 38.5735C19.5145 41.5362 21.7348 44.5441 24.6987 45.1642C25.7522 45.3846 47.7176 45.3825 48.7566 45.1619C51.7432 44.5277 53.9424 41.5496 53.6219 38.5735C53.4458 36.9394 49.436 19.2959 49.0675 18.5341C48.6531 17.6777 47.9387 17.0366 47.0357 16.7108C45.9106 16.3049 45.4578 15.4655 45.9696 14.7347C46.0831 14.5726 46.5262 14.2688 46.9542 14.0593C48.2351 13.4327 49.1518 12.067 49.1518 10.7858C49.1518 10.4423 49.227 10.3025 49.4497 10.2318C49.6136 10.1798 50.9516 9.41308 52.423 8.52815L55.0984 6.91894H64.2027H73.3069L73.6534 6.57234C73.9972 6.2287 74 6.20399 74 3.53055C74 0.857102 73.9972 0.832396 73.6534 0.488756L73.3069 0.142151H61.0111H48.7154L48.3689 0.488756C48.1783 0.679353 48.0223 0.933483 48.0223 1.05349C48.0223 1.24846 46.8208 1.27162 36.7276 1.27162C26.6345 1.27162 25.433 1.24846 25.433 1.05349C25.433 0.933483 25.277 0.679353 25.0864 0.488756C24.7427 0.144975 24.718 0.142151 22.0446 0.142151C19.3712 0.142151 19.3464 0.144975 19.0028 0.488756ZM23.1741 5.78948V9.17787H22.0446H20.9151V5.78948V2.40108H22.0446H23.1741V5.78948ZM64.9643 3.53055V4.66001H59.7257H54.4871L52.3841 5.92572L50.2812 7.19142V4.79625V2.40108H57.6228H64.9643V3.53055ZM71.7411 3.53055V4.66001H69.4821H67.2232V3.53055V2.40108H69.4821H71.7411V3.53055ZM18.6562 5.83409V8.13764L17.8444 8.47337C16.8732 8.87503 15.7436 9.95014 15.3049 10.8903C15.0415 11.455 14.9271 11.5575 14.4633 11.6443C13.0142 11.9156 11.1601 13.3069 10.4091 14.6867C10.1402 15.181 9.63177 16.9261 8.83974 20.0742C8.19538 22.6355 7.63121 24.7679 7.58603 24.8129C7.54085 24.8581 7.34475 24.8225 7.15006 24.7339C6.71874 24.5373 6.23335 23.7766 6.23265 23.2962C6.23194 22.8279 11.9449 5.70378 12.2915 5.13523C12.6275 4.5842 13.4069 3.98036 14.1028 3.73202C14.4471 3.60904 15.3364 3.54071 16.6443 3.53676L18.6562 3.53055V5.83409ZM26.5625 4.66001V5.78948H27.6919H28.8214V4.66001V3.53055H29.9509H31.0803V4.66001V5.78948H32.2098H33.3392V4.66001V3.53055H34.4687H35.5982V4.66001V5.78948H36.7276H37.8571V4.66001V3.53055H38.9866H40.116V4.66001V5.78948H41.2455H42.375V4.66001V3.53055H43.5044H44.6339V4.66001V5.78948H45.7634H46.8928V4.66001V3.53055H47.4576H48.0223V5.78948V8.04841H36.7276H25.433V5.78948V3.53055H25.9977H26.5625V4.66001ZM46.8928 10.7118C46.8928 11.2822 46.449 11.7793 45.4775 12.2972C43.8365 13.1718 43.1292 14.8557 43.7107 16.5039C44.0569 17.4848 44.5887 18.0401 45.69 18.5697C46.8513 19.1283 47.1354 19.3909 47.2617 20.023L47.3517 20.4725H36.7276H26.1036L26.1935 20.023C26.3199 19.3909 26.604 19.1283 27.7653 18.5697C28.8666 18.0401 29.3984 17.4848 29.7446 16.5039C30.3261 14.8557 29.6188 13.1718 27.9778 12.2972C27.0063 11.7793 26.5625 11.2822 26.5625 10.7118V10.3073H36.7276H46.8928V10.7118ZM14.5606 14.2252C14.5601 14.3611 14.243 16.8229 13.856 19.696C13.469 22.5691 13.1519 24.9357 13.1513 24.9551C13.1506 24.9744 12.4261 24.9904 11.5413 24.9904H9.93249L11.0278 20.6407C11.6302 18.2482 12.2057 16.1358 12.3065 15.9463C12.6702 15.2636 13.0854 14.8011 13.7011 14.3933C14.4272 13.9123 14.5623 13.8859 14.5606 14.2252ZM47.9294 23.0491C47.9727 23.2239 48.7792 26.8293 49.7216 31.0613C51.579 39.4029 51.6027 39.586 50.9836 40.8201C50.5629 41.6593 50.062 42.17 49.2224 42.6161L48.5164 42.9912H36.7276H24.9389L24.3577 42.6804C23.4477 42.1936 22.9078 41.6724 22.5195 40.9062C21.8461 39.5771 21.8567 39.491 23.7337 31.0613C24.6761 26.8293 25.4825 23.2239 25.5259 23.0491L25.6048 22.7315H36.7276H47.8505L47.9294 23.0491Z" fill="white"/>
<path fill-rule="evenodd" clip-rule="evenodd" d="M40.0406 26.0424C40.4315 25.6508 40.9737 25.2601 41.2454 25.1744C42.5594 24.7603 43.7157 25.0506 44.7092 26.044C45.4404 26.7752 45.7633 27.4903 45.7633 28.3783C45.7633 30.61 43.2716 32.3811 41.2943 31.5549C41.0155 31.4384 40.7663 31.3431 40.7403 31.3431C40.7145 31.3431 40.7903 31.6132 40.9089 31.9432C41.2157 32.7971 41.3101 34.3775 41.1115 35.3334C40.845 36.6151 40.0925 37.9648 39.1349 38.8781C36.4418 41.4468 32.3652 41.4098 29.7517 38.793C26.846 35.8836 27.1153 31.2695 30.3388 28.7318C32.6871 26.8832 36.1671 26.826 38.4903 28.5981L38.9865 28.9765V28.4468C38.9865 27.4907 39.2929 26.7917 40.0406 26.0424ZM38.5638 32.1197C38.1174 31.2116 37.2671 30.366 36.3747 29.9426C35.453 29.5052 33.9486 29.4109 33.0576 29.7346C29.1983 31.137 28.8927 36.3162 32.5627 38.1208C33.1478 38.4085 33.474 38.4673 34.4687 38.4637C35.4856 38.4601 35.7787 38.4023 36.3898 38.0856C37.4532 37.5346 37.8966 37.1064 38.4299 36.1153C38.8663 35.3045 38.9086 35.1195 38.9097 34.0256C38.9107 33.0349 38.8504 32.7025 38.5638 32.1197ZM43.1578 27.5958C43.3763 27.8142 43.5044 28.1036 43.5044 28.3786C43.5044 28.6537 43.3763 28.9431 43.1578 29.1615C42.9394 29.38 42.65 29.5081 42.3749 29.5081C42.0999 29.5081 41.8105 29.38 41.5921 29.1615C41.3735 28.9431 41.2455 28.6537 41.2455 28.3786C41.2455 28.1036 41.3735 27.8142 41.5921 27.5958C41.8105 27.3772 42.0999 27.2492 42.3749 27.2492C42.65 27.2492 42.9394 27.3772 43.1578 27.5958Z" fill="#DB3138"/>
</g>
<defs>
<filter id="filter0_d_2_227" x="0" y="0.142151" width="78" height="53.1863" filterUnits="userSpaceOnUse" color-interpolation-filters="sRGB">
<feFlood flood-opacity="0" result="BackgroundImageFix"/>
<feColorMatrix in="SourceAlpha" type="matrix" values="0 0 0 0 0 0 0 0 0 0 0 0 0 0 0 0 0 0 127 0" result="hardAlpha"/>
<feOffset dy="4"/>
<feGaussianBlur stdDeviation="2"/>
<feComposite in2="hardAlpha" operator="out"/>
<feColorMatrix type="matrix" values="0 0 0 0 0 0 0 0 0 0 0 0 0 0 0 0 0 0 0.25 0"/>
<feBlend mode="normal" in2="BackgroundImageFix" result="effect1_dropShadow_2_227"/>
<feBlend mode="normal" in="SourceGraphic" in2="effect1_dropShadow_2_227" result="shape"/>
</filter>
</defs>
</svg>
