<svg width="65" height="79" viewBox="0 0 65 79" fill="none" xmlns="http://www.w3.org/2000/svg">
<g filter="url(#filter0_d_2_162)">
<path fill-rule="evenodd" clip-rule="evenodd" d="M6.27388 0.381559C5.58116 0.600975 4.39967 1.83038 4.18726 2.55288C3.93758 3.40217 3.93758 67.3393 4.18726 68.1886C4.41633 68.9677 5.58554 70.1426 6.36082 70.3728C6.8057 70.5048 11.9446 70.5453 28.3062 70.5453H49.6705L55.0711 65.118L60.4719 59.6909V31.4139C60.4719 9.97868 60.4312 3.0005 60.304 2.57387C60.2117 2.26439 59.8617 1.70429 59.5261 1.32914C58.4209 0.0937805 60.8774 0.19434 32.1833 0.210651C14.0846 0.221005 6.6256 0.270221 6.27388 0.381559ZM57.8671 2.81371L58.2136 3.16177V30.6129V58.064H54.5956C52.1676 58.064 50.7865 58.1207 50.3967 58.2364C49.6214 58.4666 48.4522 59.6416 48.2231 60.4207C48.1079 60.8124 48.0515 62.2002 48.0515 64.6402V68.2759H27.5092H6.96674L6.62038 67.9277L6.27388 67.5797V35.3707V3.16177L6.62038 2.81371L6.96674 2.46551H32.2437H57.5207L57.8671 2.81371ZM24.975 4.9334C23.2559 5.37507 22.8881 5.63207 18.7648 9.27292C16.9794 10.8495 15.328 12.2602 15.0952 12.4078C14.8623 12.5556 14.4494 12.6773 14.1778 12.6783C13.5553 12.6807 12.3983 13.2197 11.8632 13.7563C11.6382 13.9821 11.3003 14.5013 11.1123 14.9103C10.7787 15.6364 10.7717 15.7266 10.8158 18.7398C10.8605 21.8012 10.8641 21.8316 11.2539 22.5751C11.7754 23.5698 12.6045 24.355 13.5481 24.748C14.0495 24.9569 14.3189 25.1525 14.3189 25.3077C14.3189 25.4389 14.5419 25.994 14.8143 26.5413C16.8896 30.71 22.7546 30.7152 24.8281 26.5501C25.1029 25.998 25.3279 25.459 25.3279 25.3525C25.3279 25.192 26.318 25.1588 31.1146 25.1588C35.9113 25.1588 36.9014 25.192 36.9014 25.3525C36.9014 25.459 37.1244 25.994 37.3968 26.5413C39.4721 30.71 45.3371 30.7152 47.4106 26.5501C47.6854 25.998 47.9103 25.459 47.9103 25.3525C47.9103 25.2015 48.2259 25.1588 49.3407 25.1588C50.1274 25.1588 51.0324 25.0812 51.3519 24.9863C52.1272 24.7561 53.2964 23.5812 53.5255 22.8021C53.6384 22.4178 53.6971 21.1021 53.6971 18.9529C53.6971 16.0522 53.6694 15.6537 53.4501 15.3859C53.2649 15.1598 52.2178 14.802 49.2676 13.9565C47.103 13.3361 45.319 12.8107 45.3031 12.7885C45.2871 12.7664 44.3269 11.4091 43.1696 9.77231C42.0121 8.13542 40.8206 6.54944 40.5218 6.24791C40.223 5.94637 39.5561 5.49846 39.0398 5.25267L38.1011 4.80575L31.8909 4.77894C27.2366 4.7588 25.5039 4.79752 24.975 4.9334ZM29.9855 9.7699V12.5356H24.2391C19.357 12.5356 18.5238 12.5063 18.6993 12.3406C19.9042 11.2035 23.9132 7.79034 24.2526 7.61248C25.1709 7.13153 25.8316 7.02302 27.9037 7.01366L29.9855 7.00416V9.7699ZM38.1011 7.3413C38.968 7.75219 39.0486 7.84197 40.9181 10.4791L42.4263 12.6066L38.3584 12.6498C36.1209 12.6735 33.8299 12.6521 33.267 12.6022L32.2437 12.5114V9.75784V7.00416L34.8196 7.00558C37.2305 7.00685 37.4405 7.02827 38.1011 7.3413ZM46.5862 15.5388L48.5786 16.1131L48.3504 16.5583C47.9967 17.2478 48.0508 18.583 48.4592 19.2472C48.9304 20.0134 49.6963 20.4791 50.6472 20.5777L51.4389 20.6598V21.4264C51.4389 22.0513 51.3748 22.2576 51.0924 22.5412C50.7706 22.8648 50.6454 22.8894 49.3281 22.8894C48.224 22.8894 47.9103 22.8466 47.9103 22.6957C47.9103 22.5892 47.6873 22.0542 47.4149 21.5069C46.8128 20.2976 45.9659 19.4782 44.6895 18.8706C43.8369 18.4647 43.6184 18.4217 42.4059 18.4217C41.1933 18.4217 40.9748 18.4647 40.1222 18.8706C38.8459 19.4782 37.9989 20.2976 37.3968 21.5069C37.1244 22.0542 36.9014 22.5892 36.9014 22.6957C36.9014 22.8562 35.9113 22.8894 31.1146 22.8894C26.318 22.8894 25.3279 22.8562 25.3279 22.6957C25.3279 22.5892 25.1049 22.0542 24.8325 21.5069C24.2303 20.2976 23.3834 19.4782 22.107 18.8706C21.2544 18.4647 21.0359 18.4217 19.8234 18.4217C18.6108 18.4217 18.3924 18.4647 17.5397 18.8706C17.0213 19.1174 16.3156 19.5801 15.9718 19.8985C15.3532 20.4715 14.46 21.936 14.46 22.3774C14.46 22.68 14.2914 22.6655 13.8619 22.3259C13.3274 21.9034 13.0486 21.1813 13.0486 20.219V19.3645L13.8018 19.0178C15.1849 18.3816 16.1764 17.0146 16.385 15.4565L16.4782 14.7609L30.5358 14.8625L44.5935 14.9644L46.5862 15.5388ZM14.1237 15.3958C14.0291 15.8711 13.4087 16.7906 13.1826 16.7906C13.0098 16.7906 13.0102 16.2015 13.1833 15.744C13.2904 15.4609 13.8809 14.9824 14.1601 14.9525C14.1892 14.9494 14.1728 15.1489 14.1237 15.3958ZM20.9525 17.2161V18.3508H22.6462H24.3399V17.2161V16.0815H22.6462H20.9525V17.2161ZM34.502 17.2161V18.3508H36.1957H37.8894V17.2161V16.0815H36.1957H34.502V17.2161ZM51.4389 17.7835C51.4389 18.3102 51.4106 18.3508 51.0437 18.3508C50.6018 18.3508 50.3097 18.125 50.3097 17.7835C50.3097 17.4419 50.6018 17.2161 51.0437 17.2161C51.4106 17.2161 51.4389 17.2567 51.4389 17.7835ZM20.8656 20.7926C22.0785 21.1527 23.2107 22.7129 23.2107 24.0241C23.2107 25.7815 21.5722 27.4281 19.8234 27.4281C18.0745 27.4281 16.436 25.7815 16.436 24.0241C16.436 23.1327 16.7589 22.4134 17.4898 21.6775C18.4799 20.6804 19.5463 20.4008 20.8656 20.7926ZM43.448 20.7926C44.661 21.1527 45.7932 22.7129 45.7932 24.0241C45.7932 25.7815 44.1547 27.4281 42.4059 27.4281C40.657 27.4281 39.0185 25.7815 39.0185 24.0241C39.0185 23.1327 39.3414 22.4134 40.0722 21.6775C41.0623 20.6804 42.1288 20.4008 43.448 20.7926ZM18.6943 24.0241V25.1588H19.8234H20.9525V24.0241V22.8894H19.8234H18.6943V24.0241ZM41.2767 24.0241V25.1588H42.4059H43.535V24.0241V22.8894H42.4059H41.2767V24.0241ZM42.2647 32.7468L40.7878 34.2361H37.4267H34.0657L33.7194 34.5843L33.3729 34.9323V38.7747V42.6171L33.7194 42.9652L34.0657 43.3134H37.8894H41.713L42.0594 42.9652L42.4059 42.6171V39.2396V35.862L43.8878 34.3779C44.7029 33.5616 45.3698 32.8264 45.3698 32.744C45.3698 32.5562 44.0686 31.2576 43.8805 31.2576C43.8041 31.2576 43.077 31.9277 42.2647 32.7468ZM22.0816 36.5054V37.64H26.5981H31.1146V36.5054V35.3707H26.5981H22.0816V36.5054ZM46.9224 36.5054V37.64H51.4389H55.9554V36.5054V35.3707H51.4389H46.9224V36.5054ZM37.8487 37.1839C37.483 37.5572 37.1906 37.9241 37.1989 37.9995C37.2072 38.0748 37.5587 38.4512 37.9797 38.8358L38.7452 39.5352L39.4464 38.8412L40.1476 38.1471V39.5956V41.044H37.8894H35.6311V38.7747V36.5054H37.0724H38.5139L37.8487 37.1839ZM19.8234 41.044V42.1787H25.469H31.1146V41.044V39.9094H25.469H19.8234V41.044ZM44.6641 41.044V42.1787H50.3097H55.9554V41.044V39.9094H50.3097H44.6641V41.044ZM17.424 44.0934L15.9471 45.5827H12.586H9.22499L8.87863 45.9309L8.53213 46.2789V50.1213V53.9637L8.87863 54.3118L9.22499 54.66H13.0486H16.8723L17.2186 54.3118L17.5651 53.9637V50.5863V47.2087L19.0471 45.7245C19.8622 44.9083 20.5291 44.173 20.5291 44.0906C20.5291 43.9028 19.2279 42.6042 19.0398 42.6042C18.9634 42.6042 18.2362 43.2744 17.424 44.0934ZM42.2647 44.0934L40.7878 45.5827H37.4267H34.0657L33.7194 45.9309L33.3729 46.2789V50.1213V53.9637L33.7194 54.3118L34.0657 54.66H37.8894H41.713L42.0594 54.3118L42.4059 53.9637V50.5863V47.2087L43.8878 45.7245C44.7029 44.9083 45.3698 44.173 45.3698 44.0906C45.3698 43.9028 44.0686 42.6042 43.8805 42.6042C43.8041 42.6042 43.077 43.2744 42.2647 44.0934ZM22.0816 47.852V48.9867H26.5981H31.1146V47.852V46.7174H26.5981H22.0816V47.852ZM46.9224 47.852V48.9867H51.4389H55.9554V47.852V46.7174H51.4389H46.9224V47.852ZM13.008 48.5305C12.6423 48.9038 12.3498 49.2708 12.3582 49.3461C12.3665 49.4214 12.7179 49.7978 13.139 50.1825L13.9045 50.8818L14.6057 50.1879L15.3069 49.4937V50.9423V52.3907H13.0486H10.7904V50.1213V47.852H12.2317H13.6732L13.008 48.5305ZM37.8487 48.5305C37.483 48.9038 37.1906 49.2708 37.1989 49.3461C37.2072 49.4214 37.5587 49.7978 37.9797 50.1825L38.7452 50.8818L39.4464 50.1879L40.1476 49.4937V50.9423V52.3907H37.8894H35.6311V50.1213V47.852H37.0724H38.5139L37.8487 48.5305ZM19.8234 52.3907V53.5253H25.469H31.1146V52.3907V51.256H25.469H19.8234V52.3907ZM44.6641 52.3907V53.5253H50.3097H55.9554V52.3907V51.256H50.3097H44.6641V52.3907ZM17.424 55.4401L15.9471 56.9293H12.586H9.22499L8.87863 57.2775L8.53213 57.6256V61.468V65.3104L8.87863 65.6584L9.22499 66.0066H13.0486H16.8723L17.2186 65.6584L17.5651 65.3104V61.9329V58.5553L19.0471 57.0711C19.8622 56.2549 20.5291 55.5196 20.5291 55.4372C20.5291 55.2494 19.2279 53.9508 19.0398 53.9508C18.9634 53.9508 18.2362 54.621 17.424 55.4401ZM22.0816 59.1986V60.3333H26.5981H31.1146V59.1986V58.064H26.5981H22.0816V59.1986ZM13.008 59.8772C12.6423 60.2505 12.3498 60.6174 12.3582 60.6927C12.3665 60.768 12.7179 61.1444 13.139 61.5291L13.9045 62.2285L14.6057 61.5345L15.3069 60.8404V62.2889V63.7373H13.0486H10.7904V61.468V59.1986H12.2317H13.6732L13.008 59.8772ZM56.5199 60.37C56.5199 60.3902 55.1226 61.8096 53.4148 63.5245L50.3097 66.6424V63.836C50.3097 60.0692 50.0495 60.3333 53.7613 60.3333C55.2786 60.3333 56.5199 60.3498 56.5199 60.37ZM19.8234 63.7373V64.872H25.469H31.1146V63.7373V62.6026H25.469H19.8234V63.7373Z" fill="white"/>
<path fill-rule="evenodd" clip-rule="evenodd" d="M17.4238 32.7466L15.9469 34.2358H12.5858H9.22484L8.87848 34.584L8.53198 34.9321V38.7745V42.6169L8.87848 42.9649L9.22484 43.3131H13.0485H16.8721L17.2185 42.9649L17.565 42.6169V39.2394V35.8618L19.047 34.3777C19.862 33.5614 20.5289 32.8262 20.5289 32.7438C20.5289 32.556 19.2278 31.2574 19.0396 31.2574C18.9633 31.2574 18.2361 31.9275 17.4238 32.7466ZM13.0078 37.1837C12.6421 37.557 12.3497 37.9239 12.358 37.9992C12.3663 38.0745 12.7178 38.451 13.1388 38.8356L13.9044 39.535L14.6055 38.841L15.3067 38.1469V39.5954V41.0438H13.0485H10.7902V38.7745V36.5052H12.2316H13.673L13.0078 37.1837Z" fill="#DB3138"/>
<path fill-rule="evenodd" clip-rule="evenodd" d="M17.4238 44.099L15.9469 45.5883H12.5858H9.22484L8.87848 45.9365L8.53198 46.2845V50.1269V53.9693L8.87848 54.3174L9.22484 54.6656H13.0485H16.8721L17.2185 54.3174L17.565 53.9693V50.5919V47.2143L19.047 45.7301C19.862 44.9139 20.5289 44.1786 20.5289 44.0962C20.5289 43.9084 19.2278 42.6098 19.0396 42.6098C18.9633 42.6098 18.2361 43.28 17.4238 44.099ZM13.0078 48.5361C12.6421 48.9094 12.3497 49.2764 12.358 49.3517C12.3663 49.427 12.7178 49.8034 13.1388 50.1881L13.9044 50.8874L14.6055 50.1935L15.3067 49.4993V50.9479V52.3963H13.0485H10.7902V50.1269V47.8576H12.2316H13.673L13.0078 48.5361Z" fill="#DB3138"/>
<path fill-rule="evenodd" clip-rule="evenodd" d="M17.4241 55.4458L15.9472 56.9351H12.5861H9.22509L8.87873 57.2833L8.53223 57.6313V61.4737V65.3161L8.87873 65.6642L9.22509 66.0124H13.0487H16.8724L17.2187 65.6642L17.5652 65.3161V61.9386V58.561L19.0472 57.0769C19.8623 56.2606 20.5292 55.5254 20.5292 55.443C20.5292 55.2552 19.228 53.9566 19.0399 53.9566C18.9635 53.9566 18.2363 54.6267 17.4241 55.4458ZM13.008 59.883C12.6423 60.2563 12.3499 60.6232 12.3582 60.6985C12.3665 60.7739 12.7179 61.1503 13.139 61.5349L13.9045 62.2343L14.6057 61.5403L15.3069 60.8462V62.2947V63.7431H13.0486H10.7904V61.4738V59.2045H12.2317H13.6732L13.008 59.883Z" fill="#DB3138"/>
<path fill-rule="evenodd" clip-rule="evenodd" d="M42.2363 44.099L40.7594 45.5883H37.3983H34.0373L33.691 45.9365L33.3445 46.2845V50.1269V53.9693L33.691 54.3174L34.0373 54.6656H37.861H41.6846L42.031 54.3174L42.3775 53.9693V50.5919V47.2143L43.8595 45.7301C44.6745 44.9139 45.3414 44.1786 45.3414 44.0962C45.3414 43.9084 44.0403 42.6098 43.8521 42.6098C43.7758 42.6098 43.0486 43.28 42.2363 44.099ZM37.8203 48.5361C37.4546 48.9094 37.1622 49.2764 37.1705 49.3517C37.1788 49.427 37.5303 49.8034 37.9513 50.1881L38.7169 50.8874L39.418 50.1935L40.1192 49.4993V50.9479V52.3963H37.861H35.6027V50.1269V47.8576H37.0441H38.4855L37.8203 48.5361Z" fill="#DB3138"/>
<path fill-rule="evenodd" clip-rule="evenodd" d="M42.2363 32.7527L40.7594 34.2419H37.3983H34.0373L33.691 34.5901L33.3445 34.9382V38.7806V42.623L33.691 42.971L34.0373 43.3192H37.861H41.6846L42.031 42.971L42.3775 42.623V39.2455V35.8679L43.8595 34.3838C44.6745 33.5675 45.3414 32.8323 45.3414 32.7499C45.3414 32.5621 44.0403 31.2635 43.8521 31.2635C43.7758 31.2635 43.0486 31.9336 42.2363 32.7527ZM37.8203 37.1898C37.4546 37.5631 37.1622 37.93 37.1705 38.0053C37.1788 38.0807 37.5303 38.4571 37.9513 38.8417L38.7169 39.5411L39.418 38.8471L40.1192 38.153V39.6015V41.0499H37.861H35.6027V38.7806V36.5113H37.0441H38.4855L37.8203 37.1898Z" fill="#DB3138"/>
</g>
<defs>
<filter id="filter0_d_2_162" x="0" y="0.201935" width="64.4719" height="78.3433" filterUnits="userSpaceOnUse" color-interpolation-filters="sRGB">
<feFlood flood-opacity="0" result="BackgroundImageFix"/>
<feColorMatrix in="SourceAlpha" type="matrix" values="0 0 0 0 0 0 0 0 0 0 0 0 0 0 0 0 0 0 127 0" result="hardAlpha"/>
<feOffset dy="4"/>
<feGaussianBlur stdDeviation="2"/>
<feComposite in2="hardAlpha" operator="out"/>
<feColorMatrix type="matrix" values="0 0 0 0 0 0 0 0 0 0 0 0 0 0 0 0 0 0 0.25 0"/>
<feBlend mode="normal" in2="BackgroundImageFix" result="effect1_dropShadow_2_162"/>
<feBlend mode="normal" in="SourceGraphic" in2="effect1_dropShadow_2_162" result="shape"/>
</filter>
</defs>
</svg>
